<?xml version="1.0" standalone="no"?>
<!DOCTYPE svg PUBLIC "-//W3C//DTD SVG 20010904//EN"
 "http://www.w3.org/TR/2001/REC-SVG-20010904/DTD/svg10.dtd">
<svg version="1.0" xmlns="http://www.w3.org/2000/svg"
 width="1280.000000pt" height="1016.000000pt" viewBox="0 0 1280.000000 1016.000000"
 preserveAspectRatio="xMidYMid meet">

<g transform="translate(0.000000,1016.000000) scale(0.100000,-0.100000)"
fill="#000000" stroke="none">
<path d="M10041 9854 c-17 -14 -45 -55 -63 -92 l-33 -67 -3 -1920 c-2 -1359 1
-1939 8 -1985 18 -107 71 -203 159 -290 88 -87 148 -123 257 -150 133 -34 239
-23 370 40 149 72 270 227 303 388 8 37 11 557 11 1722 l0 1670 90 0 90 0 -2
-1717 -3 -1718 -27 -78 c-99 -293 -357 -490 -659 -505 -126 -6 -216 8 -318 49
-203 81 -353 240 -428 454 l-28 80 0 2000 0 2000 22 59 c13 33 21 61 19 63 -5
6 -35 -72 -46 -122 -7 -29 -10 -724 -10 -1990 0 -2185 -6 -2026 75 -2190 92
-185 245 -318 440 -381 109 -35 267 -43 386 -20 269 54 494 268 572 544 l21
77 3 1703 3 1702 -105 0 -105 0 0 -1673 c0 -1635 0 -1676 -20 -1751 -35 -138
-112 -245 -232 -326 -161 -107 -395 -113 -565 -13 -108 63 -196 171 -242 297
l-26 71 0 1955 0 1955 26 55 c14 30 43 72 63 93 43 43 41 49 -3 11z"/>
<path d="M10523 9839 c51 -60 78 -119 84 -189 l6 -60 103 0 c57 0 104 4 104 9
0 5 -43 7 -100 4 l-100 -6 0 44 c-1 75 -60 194 -114 229 -11 7 -3 -7 17 -31z"/>
<path d="M10776 9792 c13 -37 25 -89 27 -115 2 -26 8 -51 12 -55 24 -23 -29
206 -53 230 -5 5 2 -22 14 -60z"/>
</g>
</svg>
